<?xml version="1.0" encoding="UTF-8"?>
<svg width="157px" height="52px" viewBox="0 0 157 52" version="1.1" xmlns="http://www.w3.org/2000/svg" xmlns:xlink="http://www.w3.org/1999/xlink">
    <title>logo</title>
    <g id="Page-1" stroke="none" stroke-width="1" fill="none" fill-rule="evenodd">
        <g id="Desktop-HD-Copy-2" transform="translate(-1508.000000, -80.000000)" fill-rule="nonzero">
            <g id="logo-1" transform="translate(1508.000000, 80.000000)">
                <path d="M114.206121,22.5788786 C114.010969,20.5492998 114.396394,17.6805682 116.0747,15.709535 C117.157792,14.4556846 118.728764,13.6506834 120.48513,13.5921379 L120.494888,13.5921379 C120.553434,13.5921379 120.621737,13.5872591 120.685161,13.5872591 C122.529346,13.5872591 124.178378,14.4312906 125.26635,15.7534441 L125.276107,15.7632017 C126.666564,17.4902952 127.203231,20.0614203 126.676322,22.4764239 C125.573714,27.5308557 121.953648,31.5412254 119.114189,34.0147745 C119.10931,34.0196533 119.104431,34.0245321 119.099553,34.0294109 C118.270157,33.0243791 117.494429,31.907135 116.821155,30.7215878 L116.76261,30.6044967 C115.430699,28.2919478 114.523243,25.56958 114.211,22.6666969 L114.201242,22.5739998 L114.206121,22.5788786 Z M143.293498,34.0147745 C143.298377,34.0196533 143.303256,34.0245321 143.308134,34.0245321 C144.13753,33.0195003 144.913258,31.9022562 145.586532,30.7215878 L145.645077,30.6044967 C146.976988,28.2919478 147.889323,25.56958 148.196687,22.6715757 L148.206445,22.5837574 C148.406475,20.5541786 148.021051,17.6805682 146.342745,15.709535 C145.259652,14.4556846 143.68868,13.6506834 141.932314,13.5921379 L141.922557,13.5921379 C141.864011,13.5921379 141.795708,13.5872591 141.727405,13.5872591 C139.88322,13.5872591 138.234187,14.4312906 137.146216,15.7534441 L137.136458,15.7632017 C135.746002,17.4902952 135.209334,20.0614203 135.736244,22.4764239 C136.838852,27.5308557 140.454039,31.5412254 143.298377,34.0147745 L143.293498,34.0147745 Z M118.875128,36.8493545 C116.64064,38.5959632 114.103666,40.1425413 111.400814,41.386634 L111.161753,41.4842099 C115.86979,47.4412189 123.095286,51.2271639 131.203844,51.2271639 C139.312401,51.2271639 146.537897,47.4412189 151.202025,41.5378767 L151.241055,41.4842099 C148.299142,40.1425413 145.767047,38.5959632 143.444741,36.7859302 L143.52768,36.8493545 C143.098346,37.2982037 142.649497,37.742174 142.181133,38.1666292 C140.468676,39.7522376 138.526915,41.1231791 136.414397,42.2160292 L136.268033,42.2843323 C134.350666,43.2405762 132.550391,43.7626073 131.198965,43.7626073 L131.194086,43.7626073 C129.837781,43.7626073 128.032627,43.2405762 126.120139,42.2843323 C123.861257,41.1231791 121.919496,39.7522376 120.192403,38.1519928 L120.207039,38.1666292 C119.741928,37.7405478 119.294704,37.3014562 118.86537,36.8493545 L118.875128,36.8493545 Z M144.888864,35.312534 C147.084322,37.0201123 149.577386,38.5179025 152.246087,39.6985709 L152.475391,39.7863892 C155.134334,35.8248075 156.719942,30.9460123 156.719942,25.6964287 C156.719942,11.6064682 145.298683,0.185208711 131.208722,0.185208711 C117.118762,0.185208711 105.697502,11.6064682 105.697502,25.6964287 C105.697502,30.9460123 107.283111,35.8199287 110.0006,39.8790863 L109.942054,39.7863892 C112.83518,38.5179025 115.328244,37.0201123 117.601763,35.2491097 L117.518823,35.3076552 C116.621125,34.2196839 115.781972,33.0048639 115.055031,31.7217408 L114.986728,31.5948921 C113.52309,29.0530398 112.522937,26.0574596 112.1863,22.8716063 L112.176542,22.7740304 C111.869178,19.6028135 112.747361,16.4657482 114.523243,14.3776239 C115.962487,12.7090759 118.050612,11.635741 120.387555,11.5430439 L120.402191,11.5430439 L120.465615,11.5430439 C120.538797,11.5381651 120.626616,11.5381651 120.714434,11.5381651 C123.192862,11.5381651 125.402956,12.6798032 126.856837,14.4605634 L126.866595,14.4751998 C128.637597,16.6706576 129.330386,19.90042 128.671749,22.9057579 C127.456929,28.5066147 123.529499,32.8682576 120.460737,35.5467162 C120.826646,35.9272622 121.202313,36.2931719 121.597496,36.6542027 C124.339379,39.171661 128.515627,41.7135133 131.203844,41.7135133 L131.208722,41.7135133 C133.89206,41.7135133 138.068308,39.171661 140.810191,36.6542027 C141.205374,36.2931719 141.581041,35.9223834 141.946951,35.5418374 C138.87331,32.8633788 134.955637,28.501736 133.740817,22.9008791 C133.087058,19.8955413 133.774969,16.6657788 135.541092,14.470321 C137.004731,12.6700456 139.214825,11.5332863 141.698132,11.5332863 C141.78595,11.5332863 141.873769,11.5332863 141.961587,11.5381651 L141.946951,11.5381651 L142.010375,11.5381651 C144.361954,11.6308622 146.450078,12.7090759 147.879565,14.3629875 L147.889323,14.3727451 C149.660326,16.4559906 150.538509,19.5979347 150.231145,22.7691516 C149.88475,26.0574596 148.884597,29.048161 147.362413,31.6973468 L147.420959,31.5851345 C146.625715,32.9951063 145.786562,34.2099263 144.854712,35.3418068 L144.888864,35.2978976 L144.888864,35.312534 Z" id="Shape" fill="#20B2AF"></path>
                <path d="M92.6564828,44.7920331 C92.4320582,44.5139417 92.2954519,44.1529109 92.2954519,43.7626073 C92.2954519,43.7235769 92.2954519,43.6796678 92.3003307,43.6406374 L92.3003307,43.6455162 L92.3003307,39.1179943 L93.0419076,39.1179943 L93.0419076,43.6699102 L93.0370288,43.6845466 C93.0370288,43.7040617 93.0370288,43.7284557 93.0370288,43.7528497 C93.0370288,43.9528803 93.1004531,44.1382745 93.2029078,44.294396 L93.2029078,44.2895172 C93.2614534,44.3529415 93.3492717,44.3870931 93.4419688,44.3870931 C93.4517264,44.3870931 93.4663628,44.3870931 93.4761204,44.3870931 L93.4761204,45.1286699 C93.4663628,45.1286699 93.4566052,45.1286699 93.4468476,45.1286699 C93.1394835,45.1286699 92.8613922,45.0018213 92.6662404,44.7920331 L92.6564828,44.7920331 Z M93.1150895,38.1373564 C93.1150895,38.3812962 92.9150589,38.5813268 92.6711192,38.5813268 C92.4271794,38.5813268 92.2271488,38.3812962 92.2271488,38.1373564 C92.2271488,37.8934167 92.4223006,37.6982649 92.6662404,37.6933861 C92.6662404,37.6933861 92.6662404,37.6933861 92.6662404,37.6933861 C92.9101801,37.6933861 93.1102107,37.8934167 93.1102107,38.1373564 L93.1150895,38.1373564 Z M90.8366922,5.6689745 L93.4712416,5.6689745 L93.4712416,33.6049557 L90.8366922,33.6049557 L90.8366922,5.6689745 Z M91.436784,43.4454856 C91.436784,44.3724567 90.6805707,45.1286699 89.7535996,45.1286699 C89.7535996,45.1286699 89.7535996,45.1286699 89.7535996,45.1286699 L86.55311,45.1286699 L86.55311,37.6738709 L87.2946869,37.6738709 L87.2946869,39.1179943 L89.7535996,39.1179943 C89.7535996,39.1179943 89.7535996,39.1179943 89.7535996,39.1179943 C90.6854495,39.1179943 91.436784,39.8693287 91.436784,40.8011786 L91.436784,43.4503644 L91.436784,43.4454856 Z M90.6903283,40.7962998 C90.6903283,40.2742687 90.2658731,39.8546923 89.7487208,39.8546923 L87.2898081,39.8546923 L87.2898081,44.3870931 L89.7487208,44.3870931 C90.2707519,44.3870931 90.6903283,43.9675167 90.6903283,43.4454856 L90.6903283,40.7962998 Z M80.7327073,33.6586225 C80.7327073,33.6586225 80.7278285,33.6586225 80.7278285,33.6586225 C79.430069,33.6586225 78.2347642,33.2390461 77.2590052,32.5316208 L77.2785204,32.5413784 C77.1321565,32.4340449 76.9857926,32.3218326 76.8491864,32.2047415 C76.7369741,32.1071656 76.6296406,32.0047109 76.5223071,31.8973774 C76.4442464,31.8128116 76.3645595,31.7282458 76.2832461,31.6436801 C76.2686097,31.6290437 76.2539734,31.6095285 76.239337,31.5900133 C76.2198218,31.5704981 76.2003066,31.5461041 76.1807914,31.526589 C76.0929731,31.4192555 76.1368823,31.4192555 76.0441852,31.5314678 C76.0149124,31.5656193 75.9856396,31.6046497 75.9514881,31.6388013 C75.9027001,31.6973468 75.8539122,31.7510135 75.8002454,31.8046803 C75.6831543,31.9250239 75.5628105,32.042115 75.4392146,32.1559535 C75.2001536,32.3657417 74.9415775,32.5608935 74.6683649,32.7365302 L74.643971,32.7511666 C73.7560302,33.3219856 72.6729377,33.6586225 71.5069056,33.6586225 C71.5020269,33.6586225 71.4971481,33.6586225 71.4922693,33.6586225 L45.1370177,33.6586225 C45.1370177,33.6586225 45.1370177,33.6586225 45.1321389,33.6586225 C44.1466223,33.6586225 43.2196512,33.4195615 42.4000136,32.9951063 L42.4341652,33.0097427 C42.1658314,32.8731364 41.9414068,32.7365302 41.7267399,32.5852875 L41.746255,32.5999239 C41.6096488,32.502348 41.476295,32.3998933 41.3461938,32.2925598 C41.2616281,32.2275092 41.181941,32.1575798 41.1071329,32.0827716 C40.9900418,31.9754381 40.8827083,31.8681046 40.7753748,31.7558923 C40.7265868,31.7005993 40.6761726,31.6453063 40.6241321,31.5900133 C40.4631319,31.3997403 40.5509502,31.4046191 40.3948288,31.5851345 C40.3606772,31.6241649 40.3265256,31.6631952 40.2923741,31.7022256 C40.2484649,31.7558923 40.1947982,31.8046803 40.1460102,31.858347 C40.0435555,31.9656805 39.9313432,32.073014 39.8142521,32.1754687 C39.7264338,32.2535294 39.635363,32.3299639 39.5410396,32.4047721 C39.3605242,32.5462572 39.1604936,32.6828634 38.9555842,32.8145909 L38.9263114,32.8292273 C38.0578859,33.3561372 37.0089449,33.6683801 35.886822,33.6683801 C32.6131505,33.6683801 29.9590859,31.0191943 29.9493283,27.7504015 L29.9493283,17.114628 C29.9493283,15.2899586 28.4710533,13.8116837 26.6463839,13.8116837 C24.8217145,13.8116837 23.3434396,15.2899586 23.3434396,17.114628 L23.3434396,27.7504015 C23.333682,31.0191943 20.6796174,33.6683801 17.4108247,33.6683801 C17.4108247,33.6683801 17.4108247,33.6683801 17.4059459,33.6683801 L6.52623261,33.6683801 C6.52623261,33.6683801 6.52623261,33.6683801 6.52623261,33.6683801 C3.25256104,33.6683801 0.59849646,31.0191943 0.58873887,27.7504015 L0.58873887,17.114628 C0.59849646,13.8409564 3.25256104,11.1966494 6.52623261,11.1966494 C6.52623261,11.1966494 6.52623261,11.1966494 6.52623261,11.1966494 L8.71193285,11.1966494 L8.71193285,13.8214412 L6.52623261,13.8214412 C6.52623261,13.8214412 6.52623261,13.8214412 6.52623261,13.8214412 C4.706442,13.8214412 3.22816706,15.2948374 3.22328827,17.1195068 L3.22328827,27.7552803 C3.22816706,29.5750709 4.706442,31.0533458 6.52623261,31.0533458 C6.52623261,31.0533458 6.52623261,31.0533458 6.52623261,31.0533458 L17.4059459,31.0533458 C17.4059459,31.0533458 17.4108247,31.0533458 17.4108247,31.0533458 C19.2306153,31.0533458 20.7088902,29.5799497 20.713769,27.7552803 L20.713769,17.1195068 C20.8015873,13.9092596 23.4263791,11.3381345 26.6463839,11.3381345 C29.8663888,11.3381345 32.4960594,13.9092596 32.5789989,17.1097492 L32.5789989,17.1195068 L32.5789989,27.7552803 C32.5789989,29.5799497 34.0572738,31.0582246 35.8819432,31.0582246 C37.7066126,31.0582246 39.1848876,29.5799497 39.1848876,27.7552803 L39.1848876,11.1429827 L41.819437,11.1429827 L41.819437,27.7552803 C41.8243158,29.5750709 43.3025907,31.0533458 45.1223813,31.0533458 C45.1223813,31.0533458 45.1223813,31.0533458 45.1223813,31.0533458 L48.439962,31.0533458 L48.439962,5.68361088 L51.0745114,5.68361088 L51.0745114,13.2750162 C52.489362,11.9918931 54.372577,11.2015282 56.4460649,11.2015282 C56.4509437,11.2015282 56.4509437,11.2015282 56.4558225,11.2015282 L71.4873905,11.2015282 C71.4873905,11.2015282 71.4922693,11.2015282 71.4922693,11.2015282 C74.7659408,11.2015282 77.4151266,13.850714 77.4248842,17.1195068 L77.4248842,27.7552803 C77.4248842,29.5799497 78.9031591,31.0631034 80.7327073,31.0631034 C82.5622555,31.0631034 84.0405305,29.5848285 84.0405305,27.7552803 L84.0405305,5.68361088 L86.6702011,5.68361088 L86.6702011,27.7552803 C86.6604435,31.0240731 84.0063789,33.6732588 80.7375861,33.6732588 C80.7375861,33.6732588 80.7375861,33.6732588 80.7327073,33.6732588 L80.7327073,33.6586225 Z M74.8000924,17.1048704 C74.7952136,15.2850798 73.3169387,13.8116837 71.4922693,13.8116837 C71.4922693,13.8116837 71.4922693,13.8116837 71.4873905,13.8116837 L56.4558225,13.8116837 C56.4558225,13.8116837 56.4558225,13.8116837 56.4558225,13.8116837 C53.4943938,13.8116837 51.0891478,16.2071721 51.0793902,19.1686008 L51.0793902,31.0387094 L71.4873905,31.0387094 C71.4873905,31.0387094 71.4873905,31.0387094 71.4873905,31.0387094 C73.3120599,31.0387094 74.7903348,29.5653133 74.7952136,27.7406439 L74.7952136,17.0999916 L74.8000924,17.1048704 Z M10.0877531,37.6982649 C11.0049666,37.6982649 11.7465435,38.4447205 11.7465435,39.3570552 C11.7465435,40.2693899 11.0049666,41.0158456 10.0877531,41.0158456 C9.1705396,41.0158456 8.42896273,40.2742687 8.42896273,39.3570552 C8.42896273,38.4398417 9.17541839,37.6982649 10.0926319,37.6982649 C10.0926319,37.6982649 10.0926319,37.6982649 10.0926319,37.6982649 L10.0877531,37.6982649 Z M14.4591536,37.6982649 C15.3763671,37.6982649 16.1179439,38.4447205 16.1179439,39.3570552 C16.1179439,40.2693899 15.3763671,41.0158456 14.4591536,41.0158456 C13.5419401,41.0158456 12.8003632,40.2742687 12.8003632,39.3570552 C12.8003632,38.4398417 13.5468189,37.6982649 14.4640324,37.6982649 C14.4640324,37.6982649 14.4640324,37.6982649 14.4640324,37.6982649 L14.4591536,37.6982649 Z M40.5460714,37.6982649 C41.4632849,37.6982649 42.2048618,38.4447205 42.2048618,39.3570552 C42.2048618,40.2693899 41.4632849,41.0158456 40.5460714,41.0158456 C39.6288579,41.0158456 38.8872811,40.2742687 38.8872811,39.3570552 C38.8872811,39.3570552 38.8872811,39.3570552 38.8872811,39.3570552 C38.8872811,38.4398417 39.6288579,37.6982649 40.5460714,37.6982649 C40.5460714,37.6982649 40.5509502,37.6982649 40.5509502,37.6982649 L40.5460714,37.6982649 Z M69.0138413,39.0838427 L70.8482683,39.0838427 C70.8482683,39.0838427 70.8482683,39.0838427 70.8482683,39.0838427 C71.7801182,39.0838427 72.5314526,39.8351772 72.5314526,40.767027 L72.5314526,45.1335487 L71.7898758,45.1335487 L71.7898758,44.7530027 C71.4093297,44.9823061 70.950723,45.1189123 70.4579647,45.1189123 C70.4091767,45.1189123 70.3603888,45.1189123 70.306722,45.1140336 L70.3116008,45.1140336 L69.0089625,45.1140336 C68.9992049,45.1140336 68.9845685,45.1140336 68.9748109,45.1140336 C68.0624763,45.1140336 67.3257782,44.3773355 67.3257782,43.4650008 C67.3257782,43.4650008 67.3257782,43.4650008 67.3257782,43.4650008 L67.3257782,40.767027 C67.3257782,39.8351772 68.0819914,39.0838427 69.0089625,39.0838427 C69.0089625,39.0838427 69.0089625,39.0838427 69.0089625,39.0838427 L69.0138413,39.0838427 Z M68.067355,43.460122 C68.0722338,43.9626379 68.4820526,44.3724567 68.9845685,44.3724567 C68.9943261,44.3724567 69.0040837,44.3724567 69.0138413,44.3724567 L70.35551,44.3724567 C70.3896616,44.3724567 70.4335707,44.3773355 70.4726011,44.3773355 C70.8629047,44.3773355 71.2190567,44.2504868 71.5117844,44.0358198 L71.5069056,44.0406986 C71.6874211,43.8601832 71.7947546,43.6162434 71.7947546,43.3430309 C71.7947546,43.3186369 71.7947546,43.2942429 71.7898758,43.269849 L71.7898758,43.2747278 L71.7898758,40.767027 C71.7898758,40.244996 71.3654206,39.8254196 70.8482683,39.8254196 L69.0138413,39.8254196 C69.0138413,39.8254196 69.0138413,39.8254196 69.0138413,39.8254196 C68.4918102,39.8254196 68.0722338,40.244996 68.067355,40.767027 L68.067355,43.4650008 L68.067355,43.460122 Z M74.2829401,45.1286699 L73.546242,45.1286699 L73.546242,37.6689921 L74.2829401,37.6689921 L74.2829401,45.1237911 L74.2829401,45.1286699 Z M76.0588216,39.1179943 L77.2346112,39.1179943 L77.2346112,39.8595711 L76.0588216,39.8595711 L76.0588216,43.5333039 C76.0588216,44.006547 76.4442464,44.3870931 76.9174895,44.3870931 C76.9174895,44.3870931 76.9174895,44.3870931 76.9174895,44.3870931 L78.4250372,44.3870931 L78.4250372,45.1286699 L76.9174895,45.1286699 C76.0344276,45.1286699 75.3221235,44.4163658 75.3172447,43.5333039 L75.3172447,37.6689921 L76.0539428,37.6689921 L76.0539428,39.1131155 L76.0588216,39.1179943 Z M79.3422507,37.6933861 C79.5861905,37.6933861 79.7813423,37.8934167 79.7813423,38.1324776 C79.7813423,38.3715386 79.5813117,38.5715692 79.3422507,38.5715692 C79.098311,38.5715692 78.9031591,38.3764174 78.9031591,38.1324776 C78.9031591,38.1324776 78.9031591,38.1275988 78.9031591,38.1275988 C78.9031591,37.8836591 79.098311,37.6885073 79.3422507,37.6885073 C79.3422507,37.6885073 79.3471295,37.6885073 79.3471295,37.6885073 L79.3422507,37.6933861 Z M78.9665835,39.1179943 L79.7081604,39.1179943 L79.7081604,43.6845466 C79.7081604,43.7089405 79.7032816,43.7333345 79.7032816,43.7577285 C79.7032816,43.9577591 79.7618271,44.1382745 79.8642818,44.294396 L79.8642818,44.2895172 C79.9277061,44.3480627 80.0106457,44.3870931 80.1033428,44.3870931 C80.1131004,44.3870931 80.1228579,44.3870931 80.1326155,44.3870931 L80.1326155,45.1286699 C80.1228579,45.1286699 80.1131004,45.1286699 80.1033428,45.1286699 C79.7959787,45.1286699 79.5178873,45.0018213 79.3227355,44.7920331 C79.098311,44.5090629 78.9617047,44.1480321 78.9617047,43.7577285 C78.9617047,43.7186981 78.9617047,43.6796678 78.9665835,43.6455162 L78.9665835,43.650395 L78.9665835,39.1179943 Z M81.6499208,39.1179943 L84.1088336,39.1179943 C85.0358047,39.1179943 85.7920179,39.8693287 85.7968967,40.8011786 L85.7968967,43.4503644 C85.7920179,44.3773355 85.0406835,45.1286699 84.1137124,45.1335487 L80.9132228,45.1335487 L80.9132228,37.6738709 L81.6547996,37.6738709 L81.6547996,39.1179943 L81.6499208,39.1179943 Z M81.6499208,44.3870931 L84.1088336,44.3870931 C84.6308647,44.3870931 85.0504411,43.9675167 85.0504411,43.4454856 L85.0504411,40.7962998 C85.0504411,40.2742687 84.6259859,39.8546923 84.1088336,39.8546923 L81.6499208,39.8546923 L81.6499208,44.3870931 Z" id="Shape" fill="#06338E"></path>
            </g>
        </g>
    </g>
</svg>